<?xml version="1.0" encoding="UTF-8"?>
<!DOCTYPE svg PUBLIC "-//W3C//DTD SVG 1.1//EN" "http://www.w3.org/Graphics/SVG/1.1/DTD/svg11.dtd">
<!-- Creator: CorelDRAW 2021 (64-Bit) -->
<svg xmlns="http://www.w3.org/2000/svg" xml:space="preserve" width="74.6679mm" height="71.6595mm" version="1.1" style="shape-rendering:geometricPrecision; text-rendering:geometricPrecision; image-rendering:optimizeQuality; fill-rule:evenodd; clip-rule:evenodd"
viewBox="0 0 1164.7 1117.78"
 xmlns:xlink="http://www.w3.org/1999/xlink"
 xmlns:xodm="http://www.corel.com/coreldraw/odm/2003">
 <defs>
  <style type="text/css">
   <![CDATA[
    .fil5 {fill:url(#id0)}
    .fil3 {fill:url(#id1)}
    .fil2 {fill:url(#id2)}
    .fil4 {fill:url(#id3)}
    .fil1 {fill:url(#id4)}
    .fil0 {fill:url(#id5)}
   ]]>
  </style>
  <linearGradient id="id0" gradientUnits="userSpaceOnUse" x1="469.58" y1="983.81" x2="726.84" y2="87.42">
   <stop offset="0" style="stop-opacity:1; stop-color:#CC33FF"/>
   <stop offset="0.439216" style="stop-opacity:1; stop-color:#E599FF"/>
   <stop offset="1" style="stop-opacity:1; stop-color:white"/>
  </linearGradient>
  <linearGradient id="id1" gradientUnits="userSpaceOnUse" xlink:href="#id0" x1="433.4" y1="1011.95" x2="807.51" y2="22.74">
  </linearGradient>
  <linearGradient id="id2" gradientUnits="userSpaceOnUse" xlink:href="#id0" x1="433.4" y1="1011.95" x2="807.51" y2="22.74">
  </linearGradient>
  <linearGradient id="id3" gradientUnits="userSpaceOnUse" xlink:href="#id0" x1="433.41" y1="1011.95" x2="807.51" y2="22.74">
  </linearGradient>
  <linearGradient id="id4" gradientUnits="userSpaceOnUse" xlink:href="#id0" x1="433.4" y1="1011.95" x2="807.51" y2="22.74">
  </linearGradient>
  <linearGradient id="id5" gradientUnits="userSpaceOnUse" xlink:href="#id0" x1="433.4" y1="1011.95" x2="807.51" y2="22.74">
  </linearGradient>
 </defs>
 <g id="Layer_x0020_1">
  <metadata id="CorelCorpID_0Corel-Layer"/>
  <g id="_1771535090112">
   <g>
    <path class="fil0" d="M163.74 175.5c-96.94,24.04 -44.12,126.74 -43.8,171.32 0.57,80.8 -45.32,121.17 -85.82,154.14 -65.93,53.67 -60.4,201.11 237.92,128.63 4.2,-1.02 8.38,-2.07 12.55,-3.14l-0 -0.02c-0.39,-1.92 -0.76,-3.85 -1.11,-5.78l-0.24 -1.32c-0.36,-2.01 -0.69,-4.03 -1,-6.06l-0.17 -1.1c-0.31,-2.06 -0.6,-4.14 -0.87,-6.21l-0.12 -0.96c-0.28,-2.2 -0.53,-4.4 -0.76,-6.62l-0.05 -0.51c-0.24,-2.32 -0.44,-4.65 -0.62,-6.99l-0.02 -0.3c-0.18,-2.37 -0.33,-4.74 -0.45,-7.12l-0.02 -0.33c-0.25,-4.93 -0.37,-9.89 -0.37,-14.89 0,-2.3 0.03,-4.6 0.09,-6.89l0.02 -1.06c0.06,-2.17 0.14,-4.33 0.25,-6.49l0.07 -1.35c0.12,-2.18 0.25,-4.35 0.41,-6.52l0.05 -0.68c0.16,-2.09 0.35,-4.17 0.56,-6.25l0.09 -0.93c0.22,-2.1 0.46,-4.2 0.72,-6.29l0.18 -1.44c0.27,-2.07 0.56,-4.14 0.87,-6.2l0.18 -1.15c0.31,-1.98 0.63,-3.96 0.98,-5.93l0.12 -0.72c0.37,-2.05 0.76,-4.08 1.17,-6.12l0.3 -1.49c0.4,-1.94 0.82,-3.87 1.26,-5.79l0.39 -1.67c0.46,-1.94 0.92,-3.88 1.42,-5.81l0.27 -1.02c0.45,-1.74 0.92,-3.47 1.4,-5.19l0.42 -1.5c0.53,-1.85 1.08,-3.69 1.64,-5.52l0.57 -1.83c0.56,-1.79 1.14,-3.57 1.74,-5.34l0.59 -1.71c0.5,-1.46 1.01,-2.92 1.54,-4.36l0.65 -1.8c0.61,-1.65 1.23,-3.29 1.87,-4.92l0.81 -2.07c0.65,-1.63 1.31,-3.24 1.98,-4.85 0.3,-0.71 0.6,-1.42 0.91,-2.12 0.55,-1.27 1.1,-2.54 1.66,-3.81 0.44,-0.98 0.88,-1.96 1.33,-2.93 0.53,-1.16 1.07,-2.31 1.62,-3.46 0.37,-0.78 0.74,-1.56 1.11,-2.33 0.7,-1.43 1.4,-2.85 2.12,-4.27 0.44,-0.88 0.89,-1.75 1.34,-2.61 0.53,-1.03 1.07,-2.05 1.62,-3.07 0.63,-1.18 1.27,-2.35 1.91,-3.52 0.5,-0.9 1,-1.8 1.51,-2.7 0.64,-1.13 1.29,-2.26 1.94,-3.38 0.59,-1.01 1.18,-2.02 1.78,-3.02 0.53,-0.89 1.07,-1.77 1.61,-2.65 0.66,-1.07 1.32,-2.13 1.99,-3.19 0.68,-1.07 1.37,-2.14 2.06,-3.21 0.48,-0.74 0.97,-1.48 1.46,-2.22 0.93,-1.4 1.88,-2.8 2.83,-4.18l1.3 -1.88c2.17,-3.09 4.39,-6.14 6.67,-9.14l0.79 -1.03c1.33,-1.73 2.67,-3.44 4.04,-5.14l0.8 -1c1.6,-1.98 3.22,-3.93 4.87,-5.86l0.04 -0.05c2.59,-3.03 5.24,-6 7.95,-8.92l0.55 -0.6c1.66,-1.78 3.34,-3.53 5.04,-5.27l0.46 -0.46c2.83,-2.87 5.71,-5.69 8.65,-8.44l0.14 -0.13c6.94,-6.49 14.21,-12.64 21.76,-18.44l0.09 -0.07c-23.01,-31.43 -47.68,-61.51 -73.11,-83.42 -27.28,-23.5 -101.18,-91.01 -156.52,-77.29z"/>
    <path class="fil1" d="M1068.6 876.61c45.99,-96.58 -136.55,-180.09 -222.38,-210.1 -36.4,101.92 -127.78,177.7 -238.43,191.61 0.27,4.34 0.56,8.73 0.9,13.19 5.35,70.02 19.78,135.53 47.16,191.9 31.22,64.28 111.02,70.26 142.68,12.98 35.74,-64.65 33.09,-100.36 103.01,-135.16 64.46,-32.08 136.08,0.63 167.06,-64.42z"/>
    <path class="fil2" d="M94.05 860.4c5.33,27.42 31.78,50.78 57.39,58.06 34,9.68 62.64,2.61 101.36,17.59 62.55,24.2 84.51,61.94 110.46,127.84 33.82,85.86 171.45,95.41 192.89,-170.75 0.91,-11.24 1.67,-22.25 2.27,-33 -118.26,-5.01 -218.33,-80.29 -259.51,-185.16 -91.81,35.21 -220.79,103.46 -204.86,185.42z"/>
    <path class="fil3" d="M403 2.98c-77.9,26.79 -70.23,80.56 -43.22,161.6 17.33,52.01 46.45,104.53 74.86,145.17 40.71,-21.52 87.1,-33.72 136.35,-33.72 56.04,0 108.4,15.79 152.87,43.15 36.41,-49.08 188.75,-298.1 36.51,-316.5 -64.4,-7.78 -90.26,59.4 -182.97,55.91 -81.82,-3.09 -121.61,-73.76 -174.39,-55.61z"/>
    <path class="fil4" d="M974.99 174.77c-77.19,19.35 -157.75,101.45 -210.48,174.55 60.51,53.54 98.68,131.76 98.68,218.91 0,17.87 -1.61,35.37 -4.69,52.36 22.8,6.5 46.16,11.73 68.58,16.08 53.86,10.46 167.95,22.73 210.03,-10.94 22.69,-18.16 36.26,-53.35 21.31,-92.14 -9.6,-24.92 -40.64,-43.75 -57.63,-61.56 -115.11,-120.62 -1.32,-199.32 -49.48,-264.13 -14.24,-19.17 -43.14,-41.44 -76.32,-33.12z"/>
   </g>
   <circle class="fil5" cx="571.56" cy="567.65" r="269.58"/>
  </g>
 </g>
</svg>
