<?xml version="1.0" encoding="UTF-8"?>
<!DOCTYPE svg PUBLIC "-//W3C//DTD SVG 1.1//EN" "http://www.w3.org/Graphics/SVG/1.1/DTD/svg11.dtd">
<!-- Creator: CorelDRAW 2021 (64-Bit) -->
<svg xmlns="http://www.w3.org/2000/svg" xml:space="preserve" width="73.4007mm" height="70.4434mm" version="1.1" style="shape-rendering:geometricPrecision; text-rendering:geometricPrecision; image-rendering:optimizeQuality; fill-rule:evenodd; clip-rule:evenodd"
viewBox="0 0 2630.73 2524.74"
 xmlns:xlink="http://www.w3.org/1999/xlink"
 xmlns:xodm="http://www.corel.com/coreldraw/odm/2003">
 <defs>
  <style type="text/css">
   <![CDATA[
    .fil0 {fill:#CC33FF}
   ]]>
  </style>
 </defs>
 <g id="Layer_x0020_1">
  <metadata id="CorelCorpID_0Corel-Layer"/>
  <g id="_1735778597104">
   <g>
    <path class="fil0" d="M369.85 396.4c-218.97,54.3 -99.65,286.28 -98.94,386.96 1.28,182.5 -102.37,273.69 -193.84,348.15 -148.92,121.23 -136.42,454.24 537.4,290.53 9.49,-2.31 18.94,-4.67 28.34,-7.1l-0.01 -0.05c-0.87,-4.33 -1.71,-8.68 -2.5,-13.05l-0.53 -2.99c-0.8,-4.54 -1.56,-9.1 -2.27,-13.68l-0.38 -2.49c-0.71,-4.66 -1.36,-9.34 -1.97,-14.04l-0.28 -2.17c-0.62,-4.96 -1.19,-9.95 -1.71,-14.95l-0.12 -1.15c-0.53,-5.25 -1,-10.52 -1.4,-15.8l-0.05 -0.67c-0.4,-5.34 -0.75,-10.71 -1.02,-16.09l-0.04 -0.74c-0.56,-11.14 -0.85,-22.35 -0.85,-33.63 0,-5.2 0.08,-10.38 0.2,-15.55l0.05 -2.4c0.13,-4.9 0.32,-9.78 0.56,-14.65l0.16 -3.04c0.26,-4.92 0.57,-9.83 0.93,-14.72l0.13 -1.52c0.37,-4.72 0.79,-9.43 1.25,-14.13l0.2 -2.11c0.49,-4.76 1.04,-9.49 1.62,-14.22l0.41 -3.25c0.61,-4.68 1.26,-9.36 1.96,-14.01l0.41 -2.61c0.7,-4.47 1.43,-8.94 2.22,-13.39l0.28 -1.63c0.83,-4.62 1.72,-9.22 2.65,-13.81l0.68 -3.37c0.9,-4.38 1.85,-8.73 2.85,-13.08l0.88 -3.77c1.03,-4.39 2.09,-8.77 3.2,-13.12l0.61 -2.32c1.02,-3.92 2.08,-7.83 3.17,-11.72l0.95 -3.4c1.19,-4.17 2.43,-8.33 3.71,-12.47l1.29 -4.13c1.27,-4.04 2.57,-8.07 3.92,-12.07l1.32 -3.86c1.13,-3.3 2.29,-6.58 3.47,-9.86l1.47 -4.06c1.37,-3.72 2.78,-7.43 4.22,-11.12l1.84 -4.67c1.46,-3.67 2.95,-7.33 4.48,-10.96 0.67,-1.6 1.36,-3.2 2.05,-4.8 1.24,-2.88 2.49,-5.75 3.76,-8.61 0.99,-2.21 1.99,-4.42 3,-6.63 1.2,-2.61 2.42,-5.22 3.65,-7.81 0.84,-1.76 1.67,-3.52 2.52,-5.26 1.57,-3.23 3.17,-6.44 4.79,-9.64 1,-1.98 2.01,-3.94 3.03,-5.91 1.21,-2.32 2.43,-4.63 3.66,-6.94 1.42,-2.66 2.87,-5.31 4.32,-7.95 1.13,-2.04 2.26,-4.07 3.4,-6.09 1.44,-2.55 2.91,-5.09 4.39,-7.63 1.33,-2.28 2.67,-4.56 4.03,-6.82 1.2,-2 2.41,-4 3.63,-5.99 1.48,-2.41 2.98,-4.81 4.49,-7.2 1.53,-2.43 3.09,-4.84 4.66,-7.24 1.09,-1.67 2.19,-3.34 3.3,-5.01 2.1,-3.17 4.24,-6.32 6.39,-9.45l2.94 -4.24c4.89,-6.99 9.92,-13.87 15.07,-20.65l1.79 -2.33c3,-3.91 6.04,-7.78 9.12,-11.62l1.81 -2.25c3.61,-4.46 7.28,-8.88 11.01,-13.24l0.09 -0.11c5.85,-6.85 11.84,-13.56 17.96,-20.16l1.25 -1.34c3.75,-4.01 7.54,-7.99 11.38,-11.91l1.03 -1.05c6.38,-6.49 12.9,-12.84 19.55,-19.06l0.32 -0.29c15.68,-14.66 32.09,-28.56 49.15,-41.65l0.2 -0.15c-51.98,-70.99 -107.69,-138.94 -165.14,-188.43 -61.61,-53.08 -228.55,-205.56 -353.54,-174.57z"/>
    <path class="fil0" d="M2413.66 1980.02c103.88,-218.15 -308.43,-406.77 -502.29,-474.55 -82.22,230.2 -288.62,401.38 -538.55,432.79 0.61,9.81 1.27,19.71 2.04,29.79 12.09,158.16 44.66,306.12 106.51,433.44 70.51,145.18 250.76,158.7 322.27,29.32 80.72,-146.04 74.75,-226.67 232.68,-305.28 145.6,-72.46 307.37,1.41 377.34,-145.52z"/>
    <path class="fil0" d="M212.43 1943.39c12.03,61.93 71.79,114.69 129.62,131.15 76.79,21.86 141.49,5.89 228.95,39.73 141.29,54.66 190.88,139.9 249.49,288.75 76.4,193.94 387.27,215.5 435.69,-385.68 2.04,-25.4 3.77,-50.26 5.13,-74.53 -267.11,-11.3 -493.15,-181.35 -586.17,-418.23 -207.38,79.52 -498.71,233.68 -462.72,418.81z"/>
    <path class="fil0" d="M910.26 6.72c-175.95,60.51 -158.63,181.96 -97.62,365.01 39.16,117.48 104.91,236.1 169.08,327.9 91.94,-48.6 196.73,-76.16 307.97,-76.16 126.59,0 244.83,35.66 345.29,97.45 82.23,-110.85 426.34,-673.32 82.47,-714.88 -145.46,-17.57 -203.86,134.17 -413.28,126.28 -184.81,-6.97 -274.7,-166.6 -393.91,-125.6z"/>
    <path class="fil0" d="M2202.22 394.76c-174.35,43.7 -356.31,229.15 -475.41,394.25 136.68,120.93 222.89,297.61 222.89,494.44 0,40.37 -3.64,79.89 -10.58,118.27 51.51,14.68 104.26,26.49 154.9,36.32 121.66,23.63 379.34,51.34 474.4,-24.71 51.26,-41.01 81.9,-120.5 48.13,-208.12 -21.69,-56.28 -91.78,-98.82 -130.16,-139.04 -260.01,-272.45 -2.99,-450.2 -111.77,-596.61 -32.17,-43.3 -97.44,-93.59 -172.39,-74.8z"/>
   </g>
   <circle class="fil0" cx="1291" cy="1282.15" r="608.91"/>
  </g>
 </g>
</svg>
