<?xml version="1.0" encoding="UTF-8"?>
<!DOCTYPE svg PUBLIC "-//W3C//DTD SVG 1.1//EN" "http://www.w3.org/Graphics/SVG/1.1/DTD/svg11.dtd">
<!-- Creator: CorelDRAW 2021 (64-Bit) -->
<svg xmlns="http://www.w3.org/2000/svg" xml:space="preserve" width="127mm" height="127mm" version="1.1" style="shape-rendering:geometricPrecision; text-rendering:geometricPrecision; image-rendering:optimizeQuality; fill-rule:evenodd; clip-rule:evenodd"
viewBox="0 0 1845.23 1845.23"
 xmlns:xlink="http://www.w3.org/1999/xlink"
 xmlns:xodm="http://www.corel.com/coreldraw/odm/2003">
 <defs>
  <style type="text/css">
   <![CDATA[
    .fil2 {fill:none}
    .fil1 {fill:white}
    .fil0 {fill:url(#id1)}
   ]]>
  </style>
   <clipPath id="id0">
    <path d="M369.05 0l1107.13 0c202.97,0 369.05,166.07 369.05,369.05l0 1107.13c0,202.97 -166.07,369.05 -369.05,369.05l-1107.13 0c-202.97,0 -369.05,-166.07 -369.05,-369.05l0 -1107.13c0,-202.97 166.07,-369.05 369.05,-369.05z"/>
   </clipPath>
  <linearGradient id="id1" gradientUnits="userSpaceOnUse" x1="115.7" y1="73.58" x2="2096.16" y2="2130.96">
   <stop offset="0" style="stop-opacity:1; stop-color:#CC33FF"/>
   <stop offset="0.521569" style="stop-opacity:1; stop-color:#E598FF"/>
   <stop offset="1" style="stop-opacity:1; stop-color:#FEFEFE"/>
  </linearGradient>
 </defs>
 <g id="Layer_x0020_1">
  <metadata id="CorelCorpID_0Corel-Layer"/>
  <path class="fil0" d="M369.05 0l1107.13 0c202.97,0 369.05,166.07 369.05,369.05l0 1107.13c0,202.97 -166.07,369.05 -369.05,369.05l-1107.13 0c-202.97,0 -369.05,-166.07 -369.05,-369.05l0 -1107.13c0,-202.97 166.07,-369.05 369.05,-369.05z"/>
  <g style="clip-path:url(#id0)">
   <g id="_1771524147584">
    <g>
     <g>
      <path id="_1" class="fil1" d="M494.49 545.85c-99.15,24.59 -45.12,129.63 -44.8,175.21 0.58,82.64 -46.35,123.93 -87.77,157.64 -67.43,54.89 -61.77,205.68 243.33,131.55 4.3,-1.04 8.58,-2.12 12.83,-3.21l-0 -0.02c-0.4,-1.96 -0.77,-3.93 -1.13,-5.91l-0.24 -1.35c-0.36,-2.06 -0.71,-4.12 -1.03,-6.19l-0.17 -1.13c-0.32,-2.11 -0.61,-4.23 -0.89,-6.36l-0.12 -0.98c-0.28,-2.25 -0.54,-4.5 -0.77,-6.77l-0.05 -0.52c-0.24,-2.38 -0.45,-4.76 -0.63,-7.15l-0.02 -0.31c-0.18,-2.42 -0.34,-4.85 -0.46,-7.29l-0.02 -0.33c-0.25,-5.04 -0.38,-10.12 -0.38,-15.23 0,-2.35 0.03,-4.7 0.09,-7.04l0.02 -1.09c0.06,-2.22 0.14,-4.43 0.25,-6.63l0.07 -1.38c0.12,-2.23 0.26,-4.45 0.42,-6.66l0.06 -0.69c0.17,-2.14 0.36,-4.27 0.57,-6.4l0.09 -0.95c0.22,-2.15 0.47,-4.3 0.74,-6.44l0.19 -1.47c0.27,-2.12 0.57,-4.24 0.89,-6.34l0.19 -1.18c0.32,-2.03 0.65,-4.05 1,-6.06l0.13 -0.74c0.37,-2.09 0.78,-4.18 1.2,-6.25l0.31 -1.53c0.41,-1.98 0.84,-3.95 1.29,-5.92l0.4 -1.71c0.46,-1.99 0.94,-3.97 1.45,-5.94l0.28 -1.05c0.46,-1.78 0.94,-3.55 1.44,-5.31l0.43 -1.54c0.54,-1.89 1.1,-3.77 1.68,-5.64l0.58 -1.87c0.58,-1.83 1.16,-3.65 1.77,-5.47l0.6 -1.75c0.51,-1.49 1.04,-2.98 1.57,-4.46l0.67 -1.84c0.62,-1.69 1.26,-3.36 1.91,-5.04l0.83 -2.12c0.66,-1.66 1.34,-3.32 2.03,-4.96 0.31,-0.73 0.62,-1.45 0.93,-2.17 0.56,-1.3 1.13,-2.6 1.7,-3.9 0.45,-1 0.9,-2 1.36,-3 0.54,-1.18 1.09,-2.37 1.65,-3.54 0.38,-0.8 0.75,-1.59 1.14,-2.39 0.71,-1.46 1.44,-2.91 2.17,-4.36 0.45,-0.9 0.91,-1.79 1.37,-2.67 0.55,-1.05 1.1,-2.1 1.66,-3.14 0.65,-1.2 1.3,-2.41 1.96,-3.6 0.51,-0.92 1.02,-1.84 1.54,-2.76 0.65,-1.16 1.31,-2.31 1.99,-3.45 0.6,-1.03 1.21,-2.06 1.82,-3.09 0.54,-0.91 1.09,-1.81 1.64,-2.71 0.67,-1.09 1.35,-2.18 2.04,-3.26 0.69,-1.1 1.4,-2.19 2.11,-3.28 0.49,-0.76 0.99,-1.51 1.49,-2.27 0.95,-1.43 1.92,-2.86 2.89,-4.28l1.33 -1.92c2.22,-3.16 4.49,-6.28 6.82,-9.35l0.81 -1.06c1.36,-1.77 2.73,-3.52 4.13,-5.26l0.82 -1.02c1.64,-2.02 3.3,-4.02 4.99,-6l0.04 -0.05c2.65,-3.1 5.36,-6.14 8.13,-9.13l0.57 -0.61c1.7,-1.82 3.41,-3.62 5.15,-5.39l0.47 -0.48c2.89,-2.94 5.84,-5.81 8.85,-8.63l0.14 -0.13c7.1,-6.64 14.53,-12.93 22.25,-18.86l0.09 -0.07c-23.54,-32.14 -48.76,-62.91 -74.77,-85.32 -27.89,-24.03 -103.48,-93.08 -160.08,-79.04z"/>
      <path class="fil1" d="M1419.92 1262.9c47.04,-98.78 -139.65,-184.19 -227.43,-214.87 -37.23,104.23 -130.69,181.74 -243.85,195.97 0.27,4.44 0.57,8.92 0.92,13.49 5.47,71.61 20.22,138.61 48.23,196.26 31.93,65.74 113.54,71.86 145.92,13.28 36.55,-66.12 33.84,-102.64 105.36,-138.23 65.92,-32.81 139.18,0.64 170.86,-65.89z"/>
      <path class="fil1" d="M423.21 1246.32c5.45,28.04 32.51,51.93 58.69,59.38 34.77,9.9 64.07,2.67 103.67,17.99 63.97,24.75 86.43,63.35 112.97,130.74 34.59,87.82 175.35,97.58 197.28,-174.63 0.93,-11.5 1.71,-22.76 2.32,-33.75 -120.95,-5.12 -223.29,-82.11 -265.41,-189.37 -93.9,36.01 -225.81,105.81 -209.52,189.64z"/>
      <path class="fil1" d="M739.19 369.4c-79.67,27.4 -71.83,82.39 -44.2,165.27 17.73,53.2 47.5,106.91 76.56,148.47 41.63,-22.01 89.08,-34.49 139.45,-34.49 57.32,0 110.86,16.15 156.34,44.13 37.24,-50.19 193.05,-304.88 37.34,-323.69 -65.86,-7.96 -92.31,60.75 -187.13,57.18 -83.68,-3.15 -124.38,-75.44 -178.36,-56.87z"/>
      <path class="fil1" d="M1324.18 545.1c-78.94,19.79 -161.33,103.76 -215.26,178.51 61.89,54.75 100.92,134.75 100.92,223.88 0,18.28 -1.65,36.18 -4.79,53.55 23.32,6.64 47.21,12 70.14,16.45 55.09,10.7 171.76,23.25 214.81,-11.19 23.21,-18.57 37.08,-54.56 21.79,-94.24 -9.82,-25.48 -41.56,-44.74 -58.94,-62.96 -117.73,-123.37 -1.35,-203.85 -50.61,-270.14 -14.56,-19.6 -44.12,-42.38 -78.06,-33.87z"/>
     </g>
     <circle class="fil1" cx="911.58" cy="946.91" r="275.71"/>
    </g>
   </g>
  </g>
  <path class="fil2" d="M369.05 0l1107.13 0c202.97,0 369.05,166.07 369.05,369.05l0 1107.13c0,202.97 -166.07,369.05 -369.05,369.05l-1107.13 0c-202.97,0 -369.05,-166.07 -369.05,-369.05l0 -1107.13c0,-202.97 166.07,-369.05 369.05,-369.05z"/>
 </g>
</svg>
